<svg xmlns="http://www.w3.org/2000/svg" width="512" height="512" viewBox="0 0 512 512">
  <g fill="none" fill-rule="evenodd">
    <circle cx="256" cy="256" r="256" fill="#FFDA6B"/>
    <path fill="#3B3B3B" fill-rule="nonzero" d="M345.7683,118.15462 C334.105026,118.15462 324.452148,127.255396 323.567276,138.685094 L143.519825,199.812662 L126.317081,199.812662 C114.082117,199.812662 104.000007,209.873662 104.000007,222.083007 L104.000007,370.551973 C104.000007,382.761318 114.082117,392.822318 126.317081,392.822318 L386.682934,392.822318 C398.917883,392.822318 408.999993,382.761318 408.999993,370.551973 L408.999993,222.083007 C408.999993,209.873662 398.917883,199.812662 386.682934,199.812662 L189.781257,199.812662 L327.519629,153.068025 C331.569434,158.847551 338.235172,162.69531 345.7683,162.69531 C358.005495,162.69531 368.085373,152.636686 368.085373,140.424965 C368.085373,128.213244 358.005495,118.15462 345.7683,118.15462 Z M345.7683,133.001517 C349.964654,133.001517 353.207325,136.237249 353.207325,140.424965 C353.207325,144.61268 349.964654,147.848413 345.7683,147.848413 C341.571946,147.848413 338.329276,144.61268 338.329276,140.424965 C338.329276,136.237249 341.571946,133.001517 345.7683,133.001517 Z M126.317081,214.659559 L386.682934,214.659559 C390.932849,214.659559 394.121959,217.841991 394.121959,222.083007 L394.121959,370.551973 C394.121959,374.792989 390.932849,377.975421 386.682934,377.975421 L126.317081,377.975421 C122.067166,377.975421 118.878056,374.792989 118.878056,370.551973 L118.878056,222.083007 C118.878056,217.841991 122.067166,214.659559 126.317081,214.659559 Z M193.2683,236.929904 C160.488983,236.929904 133.756105,263.606436 133.756105,296.31749 C133.756105,329.028544 160.488983,355.705076 193.2683,355.705076 C226.047617,355.705076 252.780495,329.028544 252.780495,296.31749 C252.780495,263.606436 226.047617,236.929904 193.2683,236.929904 Z M275.097568,248.065076 C270.988995,248.065076 267.658544,251.388554 267.658544,255.488524 C267.658544,259.588495 270.988995,262.911973 275.097568,262.911973 L371.804885,262.911973 C375.913459,262.911973 379.24391,259.588495 379.24391,255.488524 C379.24391,251.388554 375.913459,248.065076 371.804885,248.065076 L275.097568,248.065076 Z M193.2683,251.7768 C218.006776,251.7768 237.902446,271.630442 237.902446,296.31749 C237.902446,321.004538 218.006776,340.85818 193.2683,340.85818 C168.529825,340.85818 148.634154,321.004538 148.634154,296.31749 C148.634154,271.630442 168.529825,251.7768 193.2683,251.7768 Z M275.097568,288.894042 C270.988995,288.894042 267.658544,292.217519 267.658544,296.31749 C267.658544,300.41746 270.988995,303.740938 275.097568,303.740938 L371.804885,303.740938 C375.913459,303.740938 379.24391,300.41746 379.24391,296.31749 C379.24391,292.217519 375.913459,288.894042 371.804885,288.894042 L275.097568,288.894042 Z M275.097568,329.723007 C270.988995,329.723007 267.658544,333.046485 267.658544,337.146455 C267.658544,341.246426 270.988995,344.569904 275.097568,344.569904 L371.804885,344.569904 C375.913459,344.569904 379.24391,341.246426 379.24391,337.146455 C379.24391,333.046485 375.913459,329.723007 371.804885,329.723007 L275.097568,329.723007 Z"/>
  </g>
</svg>
